<?xml version="1.0" encoding="utf-8"?>
<!-- Generator: Adobe Illustrator 16.0.3, SVG Export Plug-In . SVG Version: 6.00 Build 0)  -->
<!DOCTYPE svg PUBLIC "-//W3C//DTD SVG 1.1//EN" "http://www.w3.org/Graphics/SVG/1.1/DTD/svg11.dtd">
<svg version="1.1" id="Capa_1" xmlns="http://www.w3.org/2000/svg" xmlns:xlink="http://www.w3.org/1999/xlink" x="0px" y="0px"
	 width="500px" height="500px" viewBox="0 0 500 500" enable-background="new 0 0 500 500" xml:space="preserve">
<path fill="#1D9CD8" d="M250.004,372.616c-67.603,0-122.626-54.689-122.626-122.621c0-67.588,55.023-122.611,122.626-122.611
	c67.584,0,122.618,55.022,122.618,122.61C372.622,317.926,317.588,372.616,250.004,372.616z M250.004,133.146
	c-64.541,0-116.854,52.32-116.854,116.85c0,64.535,52.313,116.845,116.854,116.845c64.531,0,116.834-52.31,116.834-116.845
	C366.838,185.803,314.539,133.146,250.004,133.146z M353.913,284.949l-0.635,0.135l-0.356-0.443
	c0.022-0.194,4.117-12.281,4.082-26.158c-0.048-14.945-6.12-24.113-13.929-24.113c-4.754,0-8.149,3.407-8.149,8.492
	c0,9.173,11.211,9.854,11.211,29.896c0,8.152-1.693,15.946-4.416,24.451c-12.568,42.447-52.655,62.146-91.704,62.146
	c-18.009,0-30.802-3.693-34.61-5.406c-0.154-0.077-0.289-0.375-0.167-0.676l0.494-0.348c1.544,0.613,12.529,4.06,26.123,4.06
	c14.945,0,23.775-6.109,23.775-13.594c0-4.735-3.739-8.476-8.499-8.476c-9.173,0-9.848,11.544-29.548,11.544
	c-8.492,0-15.951-1.694-24.8-4.415c-42.122-12.9-62.196-52.652-62.163-92.05c0.017-19.188,5.39-34.461,5.479-34.615l0.609-0.101
	l0.359,0.443c-0.499,1.583-4.066,12.546-4.066,26.124c0,14.945,6.111,23.773,13.92,23.773c4.423,0,8.165-3.396,8.165-8.153
	c0-9.173-11.218-10.188-11.218-29.891c0-8.492,1.701-15.965,4.417-24.796c12.912-42.109,52.652-61.857,91.716-62.158
	c18.153-0.139,34.041,5.297,34.638,5.772l0.105,0.615l-0.449,0.338c-0.186-0.022-10.511-4.343-26.145-4.343
	c-14.605-0.004-23.775,6.111-23.775,13.928c0,4.415,3.396,8.153,8.492,8.153c9.173,0,9.855-11.211,29.547-11.211
	c8.493,0,15.962,1.693,24.801,4.421c42.456,12.9,61.808,52.989,62.153,91.705C359.565,269.833,353.968,284.843,353.913,284.949z
	 M295.516,255.777c-11.542,0-20.384,8.497-20.384,18.682c0,8.491,5.09,15.276,11.896,15.276c2.382,0,4.75-1.362,4.75-4.416
	c0-4.409-5.854-5.489-5.398-12.092c0.286-4.359,4.392-7.268,8.457-7.268c8.155,0,11.966,7.904,11.966,16.048
	c-0.344,12.567-9.584,21.315-20.452,21.315c-14.278,0-23.433-13.589-23.433-28.19c0-21.741,14.26-30.234,21.732-32.269
	c0.075-0.005,19.532,3.474,18.93-5.102c-0.267-3.768-5.88-5.219-9.95-5.384c-4.503-0.179-9.047,1.445-9.047,1.445
	c-2.376-1.196-4.016-3.536-5.023-6.245c13.928-10.529,23.771-20.717,23.771-32.267c0-6.116-4.082-11.555-11.896-11.555
	c-13.926,0-24.455,17.665-24.455,33.63c0,2.714,0,5.434,0.687,7.821c-8.841,6.45-15.401,10.456-27.299,17.591
	c0-1.491,0.313-5.318,1.306-10.298c4.079-4.421,9.674-11.03,9.674-16.127c0-2.376-1.352-4.414-4.083-4.414
	c-6.783,0-11.888,10.19-13.238,17.32c-3.06,3.74-9.17,8.505-14.271,8.505c-4.076,0-5.431-3.744-5.777-5.097
	c12.906-4.421,28.877-22.087,28.877-38.051c0-3.396-1.358-10.867-11.553-10.867c-15.287,0-28.194,22.76-28.194,40.414
	c-5.436,0-7.474-5.771-7.474-10.181c0-4.414,1.695-8.836,1.695-10.188c0-1.369-0.681-3.063-2.712-3.063
	c-5.104,0-8.162,6.791-8.162,14.606c0.35,10.874,7.479,17.666,16.991,18.348c1.352,6.453,7.128,12.563,14.257,12.563
	c4.423,0,9.855-1.356,13.596-4.747c-0.35,2.377-0.684,4.408-1.021,6.448c-14.95,7.814-25.817,13.249-35.668,22.074
	c-7.79,7.129-12.209,16.635-12.209,24.106c0,10.188,6.457,19.699,19.703,19.699c15.628,0,27.519-12.57,33.285-29.893
	c2.731-8.146,3.813-20.009,4.494-30.883c15.62-8.829,23.031-13.941,31.174-19.727c1.016,1.695,2.052,3.063,3.409,4.078
	c-7.142,3.739-24.114,14.27-24.114,39.063c0,17.666,11.896,37.359,35.318,37.359c19.366,0,32.612-15.959,32.612-31.236
	C318.274,268.685,310.456,255.777,295.516,255.777z M202.104,303.324c-5.091,0.232-8.479-3.024-8.479-8.454
	c0-14.602,20.239-28.54,35.53-36.021C226.434,279.231,219.555,302.526,202.104,303.324z M213.315,223.167
	c0-11.211,11.063-32.522,17.825-30.269C239.124,195.559,224.523,217.051,213.315,223.167z M277.513,218.065
	c0-13.922,9.431-27.471,14.581-24.896C297.961,196.112,287.713,209.235,277.513,218.065z"/>
</svg>
