<?xml version="1.0" encoding="utf-8"?>
<!-- Generator: Adobe Illustrator 16.0.3, SVG Export Plug-In . SVG Version: 6.00 Build 0)  -->
<!DOCTYPE svg PUBLIC "-//W3C//DTD SVG 1.1//EN" "http://www.w3.org/Graphics/SVG/1.1/DTD/svg11.dtd">
<svg version="1.1" id="logo" xmlns="http://www.w3.org/2000/svg" xmlns:xlink="http://www.w3.org/1999/xlink" x="0px" y="0px"
	 width="500px" height="500px" viewBox="-182 -238 500 500" enable-background="new -182 -238 500 500" xml:space="preserve">
<path id="svg_1" fill="#1428A0" d="M223.469,31.463h-0.368l-15.595-54.251h-25.158v68.392h16.669l-0.941-56.123h0.364l16.749,56.123
	h24.14v-68.396h-16.776L223.469,31.463z M-96.597-22.792l-12.55,69.115h18.313l9.28-62.734h0.387l9.034,62.738h18.207
	l-12.493-69.119H-96.597z M5.844-22.785L-2.528,30.06h-0.379l-8.332-52.845h-27.648l-1.5,69.108h16.951l0.423-62.15h0.384
	l11.323,62.15H5.889l11.324-62.129l0.377-0.021l0.44,62.15h16.959l-1.497-69.108H5.844z M-151.145-5.012
	c-0.319-1.412-0.242-2.827-0.072-3.607c0.489-2.221,1.955-4.652,6.198-4.652c3.979,0,6.293,2.51,6.293,6.258v4.27h16.927v-4.824
	c0-15.078-13.263-17.43-22.866-17.43c-12.05,0-21.888,4.081-23.701,15.355c-0.495,3.029-0.557,5.805,0.165,9.304
	c2.942,14.125,27.025,18.217,30.52,27.148c0.656,1.666,0.444,3.826,0.121,5.131c-0.547,2.264-2.072,4.616-6.598,4.616
	c-4.232,0-6.816-2.476-6.816-6.244l-0.011-6.709h-18.176l-0.011,5.348c0,15.414,11.897,20.047,24.64,20.047
	c12.282,0,22.349-4.234,23.977-15.77c0.828-5.983,0.219-9.908-0.074-11.368C-123.497,7.38-149.211,3.102-151.145-5.012z
	 M69.41-4.851c-0.333-1.379-0.24-2.779-0.082-3.542c0.477-2.208,1.929-4.614,6.135-4.614c3.928,0,6.237,2.473,6.237,6.172v4.238
	h16.748v-4.78c0-14.892-13.144-17.238-22.622-17.238c-11.944,0-21.698,3.991-23.473,15.195c-0.495,3.015-0.571,5.771,0.156,9.219
	c2.917,13.977,26.758,18.04,30.229,26.874c0.631,1.667,0.438,3.787,0.13,5.085c-0.551,2.278-2.074,4.559-6.538,4.559
	c-4.213,0-6.749-2.438-6.749-6.166l-0.016-6.654H51.553v5.293c0,15.26,11.792,19.837,24.411,19.837
	c12.131,0,22.113-4.194,23.713-15.611c0.821-5.904,0.214-9.792-0.07-11.252C96.764,7.44,71.294,3.184,69.41-4.851z M146.29,28.321
	c0.014,0.878-0.015,1.893-0.158,2.637c-0.337,1.721-1.788,4.97-6.5,4.97c-4.696,0-6.163-3.249-6.501-4.97
	c-0.147-0.744-0.178-1.759-0.175-2.637v-51.119h-17.13v49.537c-0.024,1.276,0.098,3.875,0.156,4.563
	c1.166,12.884,11.18,17.046,23.646,17.046c12.451,0,22.461-4.162,23.661-17.046c0.061-0.688,0.193-3.287,0.173-4.563v-49.537
	h-17.177v51.119H146.29z M281.178,7.467v10.122h6.943V27.61c0.021,0.874-0.015,1.834-0.159,2.624
	c-0.301,1.86-2.031,5.002-6.921,5.002c-4.903,0-6.622-3.142-6.938-5.002c-0.134-0.79-0.177-1.75-0.155-2.624V-4.01
	c0-1.123,0.07-2.352,0.278-3.243c0.361-1.702,1.82-5.017,6.749-5.017c5.184,0,6.465,3.499,6.772,5.017
	c0.204,0.958,0.214,2.611,0.214,2.604v3.893h17.089v-2.308c-0.006,0,0.057-2.362-0.14-4.519
	c-1.256-12.999-11.789-17.089-23.797-17.089c-12.009,0-22.296,4.123-23.788,17.089c-0.143,1.115-0.295,3.29-0.295,4.519
	l-0.007,29.079c0.007,1.3,0.05,2.261,0.235,4.563c1.119,12.587,11.846,17.093,23.842,17.093c12.006,0,22.732-4.506,23.858-17.093
	c0.184-2.302,0.211-3.263,0.211-4.563V7.467H281.178z"/>
</svg>
