<svg height="482pt" viewBox="0 -1 482.54226 482" width="482pt" xmlns="http://www.w3.org/2000/svg"><path d="m440 280.269531c4.417969 0 8-3.582031 8-8v-24c13.230469-.058593 23.9375-10.769531 24-24 0-13.253906-10.746094-24-24-24v-29.0625c21.785156-11.476562 35.164062-34.324219 34.519531-58.9375 0-35.285156-25.128906-64-56-64-30.871093 0-56 28.714844-56 64-.472656 22.59375 10.652344 43.855469 29.480469 56.34375v31.65625h-48v-192c0-4.417969-3.582031-8-8-8h-32c-4.417969 0-8 3.582031-8 8v192c-13.230469.0625-23.9375 10.773438-24 24 0 13.257813 10.746094 24 24 24v72c-13.253906 0-24 10.746094-24 24 0 13.257813 10.746094 24 24 24v56c0 4.417969 3.582031 8 8 8h32c4.417969 0 8-3.582031 8-8v-56h64v8c-.054688 48.582031-39.421875 87.949219-88 88h-64c-36.242188.015625-68.777344-22.222656-81.921875-56h17.921875c22.082031-.023437 39.972656-17.917969 40-40v-288c-.027344-22.078125-17.917969-39.972656-40-40h-160c-22.082031.027344-39.9726562 17.921875-40 40v288c.0273438 22.082031 17.917969 39.976563 40 40h125.105469c13.832031 42.929688 53.792969 72.023438 98.894531 72h64c57.410156-.066406 103.933594-46.589843 104-104v-8h16c13.253906 0 24-10.742187 24-24 0-13.253906-10.746094-24-24-24h-16v-40zm-424 88v-288c0-13.253906 10.746094-24 24-24h160c13.253906 0 24 10.746094 24 24v288c0 13.257813-10.746094 24-24 24h-160c-13.253906 0-24-10.742187-24-24zm416-104h-16v-89.175781c1.046875.285156 2.117188.484375 3.199219.59375 2.429687.390625 4.886719.582031 7.34375.574219 1.824219 0 3.648437-.113281 5.457031-.34375zm24-40c.003906 2.160157-.882812 4.226563-2.457031 5.707031-1.457031 1.484376-3.460938 2.3125-5.542969 2.292969v-16c4.417969 0 8 3.582031 8 8zm-70.632812-124.453125c4.578124-20.449218 20.160156-35.546875 38.632812-35.546875s34.054688 15.097657 38.632812 35.546875c-9.035156-12.289062-23.378906-19.546875-38.632812-19.546875s-29.597656 7.257813-38.632812 19.546875zm6.632812 28.453125c.03125-15.976562 11.847656-29.484375 27.679688-31.644531 15.832031-2.15625 30.832031 7.699219 35.136718 23.085938 4.304688 15.390624-3.402344 31.597656-18.054687 37.96875-.277344.128906-.542969.273437-.800781.429687-.542969.222656-1.097657.402344-1.664063.546875l-.386719.109375-.300781.074219-2.984375.800781c-.585938.144531-1.179688.242187-1.777344.292969-1.136718.175781-2.28125.289062-3.433594.335937-1.394531-.054687-2.785156-.1875-4.167968-.398437-.492188-.050782-.984375-.144532-1.460938-.28125l-2.808594-.71875h-.152343l-3.457031-1.289063c-1.054688-.386719-2.179688-.546875-3.304688-.464843-11.027344-5.382813-18.03125-16.574219-18.0625-28.847657zm-72-112h16v184h-16zm-24 208c-.003906-2.15625.882812-4.222656 2.457031-5.703125 1.457031-1.484375 3.460938-2.3125 5.542969-2.296875h96v16h-96c-4.417969 0-8-3.582031-8-8zm24 24h16v72h-16zm16 168h-16v-48h16zm-32-64c-4.417969 0-8-3.582031-8-8s3.582031-8 8-8h112v16zm144-16c4.417969 0 8 3.582031 8 8s-3.582031 8-8 8h-16v-16zm-32-16h-64v-72h48v24c0 4.417969 3.582031 8 8 8h8zm0 0"/><path d="m168 72.269531h-96c-4.417969 0-8 3.582031-8 8v144c0 4.417969 3.582031 8 8 8h96c4.417969 0 8-3.582031 8-8v-144c0-4.417969-3.582031-8-8-8zm-8 144h-80v-128h80zm0 0"/><path d="m160 288.269531c0-22.089843-17.910156-40-40-40s-40 17.910157-40 40c0 22.09375 17.910156 40 40 40 22.082031-.023437 39.972656-17.917969 40-40zm-40 24c-11.675781.023438-21.664062-8.378906-23.644531-19.886719-1.976563-11.503906 4.632812-22.761718 15.644531-26.640624v14.527343c0 4.417969 3.582031 8 8 8s8-3.582031 8-8v-14.527343c11.011719 3.878906 17.621094 15.136718 15.644531 26.640624-1.980469 11.507813-11.96875 19.910157-23.644531 19.886719zm0 0"/><path d="m104 360.269531h-32c-4.417969 0-8 3.582031-8 8s3.582031 8 8 8h32c4.417969 0 8-3.582031 8-8s-3.582031-8-8-8zm0 0"/><path d="m168 360.269531h-32c-4.417969 0-8 3.582031-8 8s3.582031 8 8 8h32c4.417969 0 8-3.582031 8-8s-3.582031-8-8-8zm0 0"/><path d="m120 208.269531c17.671875 0 32-14.324219 32-32 0-17.671875-14.328125-32-32-32s-32 14.328125-32 32c0 17.675781 14.328125 32 32 32zm0-48c7.238281-.03125 13.589844 4.816407 15.46875 11.808594s-1.1875 14.367187-7.46875 17.96875v-5.777344c0-4.417969-3.582031-8-8-8s-8 3.582031-8 8v5.777344c-6.28125-3.601563-9.347656-10.976563-7.46875-17.96875s8.230469-11.839844 15.46875-11.808594zm0 0"/></svg>