<?xml version="1.0" encoding="utf-8"?>
<!-- Generator: Adobe Illustrator 16.0.3, SVG Export Plug-In . SVG Version: 6.00 Build 0)  -->
<!DOCTYPE svg PUBLIC "-//W3C//DTD SVG 1.1//EN" "http://www.w3.org/Graphics/SVG/1.1/DTD/svg11.dtd">
<svg version="1.1"
	 id="svg2" xmlns:rdf="http://www.w3.org/1999/02/22-rdf-syntax-ns#" xmlns:svg="http://www.w3.org/2000/svg" xmlns:dc="http://purl.org/dc/elements/1.1/" xmlns:cc="http://creativecommons.org/ns#"
	 xmlns="http://www.w3.org/2000/svg" xmlns:xlink="http://www.w3.org/1999/xlink" x="0px" y="0px" width="500px" height="500px"
	 viewBox="-120.667 -120.667 500 500" enable-background="new -120.667 -120.667 500 500" xml:space="preserve">
<g>
	<path id="path16" fill="#C4094F" d="M52.608,199.106c38.534,0,69.774-31.238,69.774-69.772c0-38.533-31.24-69.771-69.774-69.771
		S-17.165,90.8-17.165,129.333C-17.165,167.867,14.073,199.106,52.608,199.106"/>
	<path id="path18" fill="#FFFFFF" d="M69.598,153.885h-14.45V99.281H49.79v59.999h5.357v-0.039h14.45V153.885"/>
	<path id="path20" fill="#FFFFFF" d="M105.662,131.566H69.683v-5.356h41.251c0.055,1.038,0.081,2.073,0.081,3.124
		c0,32.259-26.149,58.411-58.407,58.411c-32.257,0-58.408-26.152-58.408-58.411c0-32.256,26.151-58.407,58.408-58.407
		c0.853,0,1.699,0.019,2.542,0.056l-0.007,5.317c-0.84-0.037-1.686-0.059-2.535-0.059c-29.322,0-53.093,23.772-53.093,53.093
		c0,29.323,23.771,53.095,53.093,53.095c28.524,0,51.792-22.492,53.042-50.705L105.662,131.566"/>
	<path id="path22" fill="#FFFFFF" d="M30.822,115.444c4.531,0,8.204-3.671,8.204-8.205c0-4.532-3.673-8.207-8.204-8.207
		c-4.533,0-8.208,3.675-8.208,8.207C22.614,111.773,26.288,115.444,30.822,115.444"/>
	<path id="path24" fill="#7B7979" d="M157.027,163.582h49.854v-15.058h-31.545v-1.458V94.609h-18.309V163.582"/>
	<path id="path26" fill="#7B7979" d="M267.122,99.464c-5.717-4.43-13.076-6.675-21.857-6.675c-10.434,0-19.145,3.202-25.203,9.257
		c-6.326,6.325-9.672,15.646-9.672,26.953c0,12.077,3.543,22.267,9.967,28.692c5.039,5.041,11.77,7.707,19.457,7.707
		c16.885,0,20.77-10.122,20.77-10.122v4.651v3.654h15.248v-38.957h-30.354v12.189h12.213h1.758c0,0,0.135,15.344-14.281,15.344
		c-3.662,0-6.93-1.329-9.441-3.841c-3.91-3.907-5.975-10.492-5.975-19.03c0-14.146,5.621-22.588,15.031-22.588
		c5.881,0,10.299,3.61,11.432,9.083h19.42C274.624,107.832,272.447,103.687,267.122,99.464"/>
</g>
</svg>
