<?xml version="1.0" encoding="utf-8"?>
<!-- Generator: Adobe Illustrator 16.0.3, SVG Export Plug-In . SVG Version: 6.00 Build 0)  -->
<!DOCTYPE svg PUBLIC "-//W3C//DTD SVG 1.1//EN" "http://www.w3.org/Graphics/SVG/1.1/DTD/svg11.dtd">
<svg version="1.1" id="layer" xmlns="http://www.w3.org/2000/svg" xmlns:xlink="http://www.w3.org/1999/xlink" x="0px" y="0px"
	 width="500px" height="500px" viewBox="-150 -150 500 500" enable-background="new -150 -150 500 500" xml:space="preserve">
<g>
	<path fill="#000745" d="M-138.862,153.857h109.638V44.139h-109.638V153.857z M-68.557,52.579c19.348,6.37,33.36,24.762,33.44,46.42
		c0.08,21.336-13.694,39.729-33.44,46.498V52.579z M-84.004,50.032c3.503,0,7.246,0.477,10.351,1.115
		c0,24.84-24.045,45.303-48.807,45.303h-10.351C-131.14,70.972-110.12,50.032-84.004,50.032 M-122.46,101.626
		c24.762,0,48.807,20.462,48.807,45.225c-3.104,0.637-7.005,1.115-10.351,1.115c-26.116,0-47.851-21.021-48.887-46.34H-122.46
		L-122.46,101.626z"/>
	<path fill="#000745" d="M7.561,108.632v-6.926h22.851v-8.839H7.561V80.048h24.283v-8.757h-33.6v18.869v18.077
		c0,9.312,3.981,15.763,13.297,17.037c0.158,0.079,0.397,0.079,0.557,0.079h0.16c0.956,0.078,1.912,0.159,2.946,0.159h17.278v-8.759
		H15.283C12.337,116.753,7.561,115.32,7.561,108.632"/>
	<polygon fill="#000745" points="39.09,96.928 39.09,125.592 48.485,125.592 48.485,96.769 48.485,71.291 39.09,71.291 	"/>
	<path fill="#000745" d="M75.238,85.065c-11.783,0-20.622,8.121-20.622,20.78v0.319c0,12.343,8.518,20.301,20.861,20.301
		c5.971,0,11.465-1.671,16.561-7.007l-5.653-5.492c-2.946,2.947-5.892,4.541-10.67,4.541c-6.925,0-11.544-4.062-11.862-10.354
		h30.653c0.161-1.59,0.161-3.265,0.161-3.265C94.746,93.902,87.022,85.065,75.238,85.065 M64.17,101.706
		c0.398-4.778,5.255-8.6,11.067-8.6c5.495,0,9.952,3.901,9.952,8.6H64.17z"/>
	<path fill="#000745" d="M121.021,93.425c4.217,0,7.326,1.591,10.031,4.299l5.813-6.052c-4.539-4.855-9.953-6.767-15.766-6.767
		c-11.865,0-21.417,8.837-21.417,20.861c0,12.021,9.552,20.862,21.417,20.862c5.893,0,11.227-1.993,15.766-6.769l-5.813-6.054
		c-2.631,2.708-5.814,4.3-10.031,4.3c-6.85,0-12.104-5.253-12.104-12.34C108.84,98.679,114.092,93.425,121.021,93.425"/>
	<path fill="#000745" d="M151.99,108.632L151.99,108.632V94.778h8.523v-8.52h-8.523V71.211h-9.311v19.586v18.474l0,0
		c0.238,8.836,4.299,14.808,13.295,16.082c0.16,0.078,0.398,0.078,0.557,0.078h0.16c0.953,0.081,1.91,0.161,2.945,0.161h0.955
		v-8.758h-0.955C156.691,116.753,151.99,115.32,151.99,108.632"/>
	<path fill="#000745" d="M177.553,92.151v-5.812h-9.238v19.269v19.983h9.238v-20.621c0-6.451,4.137-10.511,10.586-10.511
		c1.516,0,2.787,0.159,3.902,0.398V85.86c-0.398-0.079-1.752-0.238-2.785-0.238C183.682,85.543,179.461,88.09,177.553,92.151"/>
	<path fill="#000745" d="M214.893,85.145c-11.941,0-21.416,8.996-21.416,20.779c0,11.787,9.475,20.782,21.416,20.782
		c11.865,0,21.416-9.075,21.416-20.782C236.309,94.22,226.758,85.145,214.893,85.145 M214.893,118.269
		c-6.928,0-12.182-5.415-12.182-12.345c0-6.924,5.254-12.34,12.182-12.34c6.846,0,12.182,5.335,12.182,12.34
		C227.074,112.854,221.738,118.269,214.893,118.269"/>
	<polygon fill="#000745" points="242.043,95.973 242.043,125.592 251.439,125.592 251.439,96.369 251.439,71.291 242.043,71.291 	
		"/>
	<path fill="#000745" d="M285.119,109.11c0,6.21-3.662,8.919-8.598,8.919c-4.938,0-8.6-2.631-8.6-8.842V86.258h-9.398v11.386v12.34
		c0,11.229,8.203,16.562,17.916,16.562c9.795,0,18.074-5.413,18.074-16.8V97.645V86.258h-9.395V109.11L285.119,109.11z"/>
	<polygon fill="#000745" points="329.943,113.011 324.055,104.812 331.299,94.857 337.59,86.339 327.396,86.339 318.877,98.124 
		310.279,86.339 300.164,86.339 305.98,94.301 313.701,104.889 305.662,116.195 298.895,125.592 308.926,125.592 318.877,111.739 
		328.83,125.592 338.861,125.592 	"/>
</g>
</svg>
