<?xml version="1.0" encoding="utf-8"?>
<!-- Generator: Adobe Illustrator 16.0.3, SVG Export Plug-In . SVG Version: 6.00 Build 0)  -->
<!DOCTYPE svg PUBLIC "-//W3C//DTD SVG 1.1//EN" "http://www.w3.org/Graphics/SVG/1.1/DTD/svg11.dtd">
<svg version="1.1"
	 id="svg2" xmlns:rdf="http://www.w3.org/1999/02/22-rdf-syntax-ns#" xmlns:svg="http://www.w3.org/2000/svg" xmlns:dc="http://purl.org/dc/elements/1.1/" xmlns:cc="http://creativecommons.org/ns#"
	 xmlns="http://www.w3.org/2000/svg" xmlns:xlink="http://www.w3.org/1999/xlink" x="0px" y="0px" width="500px" height="500px"
	 viewBox="0 0 500 500" enable-background="new 0 0 500 500" xml:space="preserve">
<g>
	<path id="path16" fill="#FFFFFF" d="M33.319,186.773c-13.265,0-24.056,10.44-24.056,23.271v79.914
		c0,12.83,10.791,23.268,24.056,23.268h433.361c13.264,0,24.056-10.438,24.056-23.268v-79.914c0-12.832-10.792-23.271-24.056-23.271
		H33.319"/>
	<path id="path18" fill="#1C4F9C" d="M484.496,289.959c0,9.406-7.976,17.025-17.814,17.025H33.319
		c-9.84,0-17.815-7.619-17.815-17.025v-79.914c0-9.406,7.976-17.031,17.815-17.031h433.361c9.84,0,17.814,7.625,17.814,17.031
		L484.496,289.959"/>
	<path id="path20" fill="#40C1E6" d="M75.656,207.098c-1.708-2.636-3.892-2.127-5.217,0l-6.942,9.596
		c-1.435,1.981-4.585,3.289-7.001,2.899l-11.691-1.874c-3.203-0.662-4.254,1.165-3.689,3.688l1.872,11.692
		c0.39,2.416-0.918,5.568-2.899,7.002l-9.594,6.941c-2.559,1.794-2.163,3.881,0,5.217l9.594,6.943
		c1.981,1.436,3.289,4.585,2.901,7.004l-1.874,11.689c-0.589,2.908,1.131,4.174,3.689,3.689l11.691-1.878
		c2.416-0.386,5.566,0.919,7.001,2.903l6.942,9.595c1.572,2.374,3.848,2.004,5.217,0l6.941-9.595
		c1.436-1.984,4.587-3.289,7.004-2.903l11.692,1.878c3.018,0.652,4.231-1.346,3.688-3.689l-1.876-11.689
		c-0.387-2.419,0.919-5.568,2.9-7.004l9.596-6.943c2.396-1.402,2.082-3.843,0-5.217l-9.596-6.941
		c-1.981-1.434-3.288-4.586-2.9-7.002l1.876-11.692c0.601-3.128-1.158-4.218-3.688-3.688l-11.692,1.874
		c-2.417,0.388-5.568-0.918-7.004-2.899L75.656,207.098"/>
	<path id="path22" fill="#FFFFFF" d="M49.814,262.505c1.051-2.212,0.025-4.69-2.282-5.51l-16.451-5.851
		c-2.305-0.82-2.305-2.164,0-2.982l16.451-5.852c2.308-0.819,3.333-3.297,2.282-5.511l-7.496-15.769
		c-1.049-2.209-0.101-3.159,2.108-2.107l15.769,7.498c2.212,1.048,4.692,0.021,5.511-2.284l5.854-16.45
		c0.819-2.308,2.16-2.308,2.981,0l5.848,16.45c0.821,2.306,3.302,3.331,5.513,2.282l15.769-7.496
		c2.208-1.051,3.157-0.102,2.105,2.107L96.283,236.8c-1.048,2.214-0.024,4.691,2.282,5.511l16.453,5.852
		c2.306,0.82,2.306,2.162,0,2.982l-16.453,5.851c-2.307,0.819-3.33,3.298-2.282,5.51l7.494,15.767
		c1.052,2.213,0.103,3.162-2.105,2.108l-15.769-7.494c-2.211-1.051-4.691-0.024-5.513,2.282l-5.852,16.451
		c-0.817,2.306-2.158,2.306-2.978,0l-5.854-16.451c-0.832-2.354-3.299-3.333-5.511-2.282l-15.769,7.497
		c-2.209,1.049-3.157,0.102-2.108-2.111L49.814,262.505"/>
	<path id="path24" fill="#0F80CC" d="M75.656,207.098c-1.434-1.979-1.937-1.719-1.115,0.588l5.848,16.451
		c0.933,2.329,2.241,2.387,3.154,0.176c0.915-2.207,0.49-5.639-0.945-7.621L75.656,207.098"/>
	<path id="path26" fill="#0F80CC" d="M104.982,221.407c0.389-2.415-0.154-2.585-1.207-0.375L96.281,236.8
		c-1.006,2.377-0.104,3.271,2.104,2.356s4.334-3.641,4.721-6.057L104.982,221.407"/>
	<path id="path28" fill="#0F80CC" d="M98.385,260.148c-2.209-0.916-2.116-2.213,0.178-3.153l16.453-5.851
		c2.306-0.82,2.304-0.025,0.586,1.116l-9.597,6.943C104.025,260.639,100.593,261.063,98.385,260.148"/>
	<path id="path30" fill="#0F80CC" d="M85.901,272.886c-2.324-1.019-3.271-0.104-2.358,2.103c0.915,2.213,3.642,4.336,6.059,4.722
		l11.692,1.878c2.156,0.389,2.584-0.154,0.376-1.208L85.901,272.886"/>
	<path id="path32" fill="#0F80CC" d="M63.502,282.609c-1.438-1.981-1.865-5.408-0.951-7.621c0.916-2.205,2.225-2.105,3.152,0.181
		l5.812,16.363c0.82,2.306,0.26,2.514-1.177,0.532L63.502,282.609"/>
	<path id="path34" fill="#0F80CC" d="M41.133,277.807c-0.386,2.418,0.192,2.545,1.249,0.336l7.43-15.643
		c1-2.262,0.106-3.268-2.103-2.352c-2.209,0.912-4.333,3.64-4.721,6.059L41.133,277.807"/>
	<path id="path36" fill="#0F80CC" d="M30.495,247.044c-1.938,1.511-1.673,1.921,0.633,1.095l16.366-5.826
		c2.302-0.83,2.4-2.244,0.213-3.146c-2.189-0.902-5.597-0.529-7.58,0.907L30.495,247.044"/>
	<path id="path38" fill="#0F80CC" d="M44.805,217.719c-2.42-0.388-2.587,0.154-0.378,1.205l15.769,7.498
		c2.385,0.996,3.272,0.102,2.356-2.107c-0.914-2.209-3.64-4.334-6.056-4.721L44.805,217.719"/>
	<path id="path40" fill="#FFFFFF" d="M185.728,241.598c-3.105-2.088-5.937-2.72-12.974-2.72h-5.19c-7,0-9.895,0.632-12.933,2.72
		c-3.063,2.201-4.596,5.541-4.596,10.252v20.77h12.049v-21.827c0-3.385,1.79-4.724,6.204-4.724h3.749
		c4.412,0,6.223,1.338,6.223,4.724v21.827h12.049v-20.77C190.309,247.139,188.756,243.799,185.728,241.598"/>
	<path id="path42" fill="#FFFFFF" d="M418.184,241.389c-3.064-2.101-5.944-2.703-12.96-2.703h-1.102
		c-5.916,0-8.893,0.439-11.499,1.832c-2.644-1.393-5.61-1.832-11.523-1.832h-1.108c-6.998,0-9.882,0.603-12.939,2.703
		c-3.068,2.221-4.572,5.541-4.572,10.256v20.789h12.029v-21.822c0-3.37,1.766-4.68,6.032-4.709c4.301,0.029,6.063,1.339,6.063,4.709
		v21.822h12.042v-21.822c0-3.37,1.74-4.68,6.044-4.709c4.285,0.029,6.029,1.339,6.029,4.709v21.822h12.044v-20.789
		C422.764,246.93,421.217,243.607,418.184,241.389"/>
	<path id="path44" fill="#FFFFFF" d="M247.706,269.936c3.056,2.059,5.933,2.685,12.952,2.685h5.181
		c7.017,0,9.881-0.626,12.938-2.685c3.06-2.226,4.586-5.561,4.586-10.262v-20.796h-12.056v21.815c0,3.421-1.775,4.713-6.179,4.713
		h-3.773c-4.408,0-6.213-1.292-6.213-4.713v-21.815h-12.033v20.796C243.108,264.376,244.637,267.71,247.706,269.936"/>
	<path id="path46" fill="#FFFFFF" d="M205.067,255.958c0-5.886,4.203-9.421,11.206-9.421h8.749v15.541
		c-0.461,2.373-2.452,3.736-5.524,3.803h-3.225C209.38,265.88,205.067,262.117,205.067,255.958L205.067,255.958z M237.062,239.333
		v-12.5h-12.039v12.5h-11.369c-5.453,0-9.685,0.972-12.941,2.903c-5.275,3.17-7.883,7.758-7.883,13.723
		c0,5.463,2.051,9.677,6.216,12.805c4.289,3.278,8.605,4.309,17.229,4.309h3.337l0,0c7.023,0,9.9-0.639,12.97-2.689
		c3.036-2.238,4.568-5.559,4.568-10.279v-20.77L237.062,239.333"/>
	<path id="path48" fill="#FFFFFF" d="M129.934,226.427h12.773v46.193h-12.773V226.427"/>
	<path id="path50" fill="#FFFFFF" d="M312.846,246.252v-7.313c-1.11-0.035-3.601-0.063-4.781-0.063h-1.113
		c-7.008,0-9.896,0.632-12.94,2.719c-3.073,2.202-4.584,5.541-4.584,10.254v20.77h12.038v-21.827c0-3.372,1.776-4.69,6.157-4.724
		C308.731,246.104,311.406,246.157,312.846,246.252"/>
	<path id="path52" fill="#FFFFFF" d="M353.402,241.969c-3.038-2.06-5.928-2.723-12.911-2.723v0.023h-3.339
		c-8.641,0-12.962,1.055-17.258,4.32c-4.14,3.119-6.203,7.326-6.203,12.787c0,5.995,2.6,10.536,7.924,13.725
		c3.213,1.95,7.439,2.928,12.917,2.928h8.003v-7.215h-5.383c-7.023,0-11.264-3.524-11.264-9.438c0-6.139,4.326-9.896,11.264-9.896
		h3.212c3.071,0.057,5.085,1.427,5.521,3.785v22.805h12.002v-0.047h0.104v-20.799C357.99,247.507,356.489,244.188,353.402,241.969"
		/>
	<path id="path54" fill="#FFFFFF" d="M465.567,241.969c-3.096-2.06-5.936-2.723-12.964-2.723v0.023h-3.324
		c-8.635,0-12.95,1.055-17.263,4.32c-4.16,3.119-6.192,7.326-6.192,12.787c0,5.995,2.579,10.536,7.916,13.725
		c3.217,1.95,7.44,2.928,12.922,2.928h8v-7.215h-5.383c-7.004,0-11.245-3.524-11.245-9.438c0-6.139,4.32-9.896,11.245-9.896h3.206
		c3.063,0.057,5.088,1.427,5.541,3.785v22.805h11.985v-0.047h0.118v-20.799C470.13,247.507,468.587,244.188,465.567,241.969"/>
</g>
</svg>
