<?xml version="1.0" encoding="utf-8"?>
<!-- Generator: Adobe Illustrator 16.0.3, SVG Export Plug-In . SVG Version: 6.00 Build 0)  -->
<!DOCTYPE svg PUBLIC "-//W3C//DTD SVG 1.1//EN" "http://www.w3.org/Graphics/SVG/1.1/DTD/svg11.dtd">
<svg version="1.1"
	 id="svg263" xmlns:rdf="http://www.w3.org/1999/02/22-rdf-syntax-ns#" xmlns:svg="http://www.w3.org/2000/svg" xmlns:dc="http://purl.org/dc/elements/1.1/" xmlns:cc="http://creativecommons.org/ns#" inkscape:export-filename="C:\Users\suitedoalex\Downloads\whirlpool-logo-0.png" inkscape:export-ydpi="96" inkscape:export-xdpi="96" inkscape:version="0.92.2 (5c3e80d, 2017-08-06)" sodipodi:docname="whirlpool-logo.svg" xmlns:sodipodi="http://sodipodi.sourceforge.net/DTD/sodipodi-0.dtd" xmlns:inkscape="http://www.inkscape.org/namespaces/inkscape"
	 xmlns="http://www.w3.org/2000/svg" xmlns:xlink="http://www.w3.org/1999/xlink" x="0px" y="0px" width="500px" height="500px"
	 viewBox="1798 1798 500 500" enable-background="new 1798 1798 500 500" xml:space="preserve">
<sodipodi:namedview  id="namedview265" inkscape:window-width="1600" inkscape:pageshadow="2" inkscape:pageopacity="0" inkscape:window-maximized="1" inkscape:window-x="-8" inkscape:current-layer="svg263" inkscape:window-height="837" inkscape:window-y="-8" inkscape:cy="1805.3261" pagecolor="#ffffff" objecttolerance="10" inkscape:cx="3226.8916" inkscape:zoom="0.12435374" borderopacity="1" gridtolerance="10" guidetolerance="10" bordercolor="#666666" showgrid="false">
	</sodipodi:namedview>
<g id="Subword_Black" transform="matrix(2.7077457,0,0,2.7077457,398.71209,325.62953)" inkscape:export-ydpi="11.825833" inkscape:export-xdpi="11.825833">
</g>
<g id="_x32_017_x5F_1-colorBlk" transform="matrix(2.7077457,0,0,2.7077457,398.71209,325.62953)" inkscape:export-ydpi="11.825833" inkscape:export-xdpi="11.825833">
	<g id="g250">
		<g id="g248">
			<path id="path238" inkscape:connector-curvature="0" d="M562.859,610.472l-9.008,32.911h-5.227l-6.366-23.902l-6.468,23.902
				h-5.241l-8.994-32.911h5.183l6.41,23.901l6.454-23.901h5.139l6.512,23.901l6.409-23.901H562.859z"/>
			<path id="path240" inkscape:connector-curvature="0" d="M565.253,610.56l5.184-0.423v8.06l-0.088,3.022h0.19
				c2.409-0.891,4.336-1.314,6.701-1.314c4.191,0,7.024,1.884,7.024,9.096v14.382h-5.184v-13.959c0-4.336-2.117-4.906-4.526-4.906
				c-1.504,0-2.789,0.336-4.103,0.701v18.164h-5.184V610.56H565.253z"/>
			<path id="path242" inkscape:connector-curvature="0" d="M591.374,610.896c2.687,0,3.11,1.562,3.11,3.3
				c0,1.738-0.569,3.344-3.11,3.344c-2.54,0-3.066-1.606-3.066-3.344C588.308,612.458,588.79,610.896,591.374,610.896z
				 M588.79,620.226h5.183v23.157h-5.183V620.226z"/>
			<path id="path244" inkscape:connector-curvature="0" d="M598.354,620.226h3.534l0.701,1.883h0.336
				c1.373-1.183,3.533-2.219,6.365-2.219c0.336,0,0.701,0,1.081,0.044v5.096c-0.95-0.146-1.927-0.277-2.92-0.277
				c-1.416,0-2.541,0.336-3.913,0.949v17.682h-5.183V620.226z"/>
			<path id="path246" inkscape:connector-curvature="0" d="M612.589,643.383V610.56l5.184-0.423v33.246H612.589z"/>
		</g>
	</g>
	<path id="path252" inkscape:connector-curvature="0" d="M654.655,619.905c7.359,0,10.192,4.336,10.192,12.031
		c0,7.213-2.643,11.929-10.279,11.929c-7.636,0-10.323-4.716-10.323-11.929C644.23,624.241,647.296,619.905,654.655,619.905
		L654.655,619.905z M659.561,631.922c0-4.381-0.714-7.972-4.862-7.972c-4.19,0-5.241,3.446-5.241,7.972
		c0,4.191,0.846,7.826,4.993,7.826C658.612,639.747,659.561,636.316,659.561,631.922z"/>
	<path id="path254" inkscape:connector-curvature="0" d="M677.914,619.905c7.358,0,10.191,4.336,10.191,12.031
		c0,7.213-2.643,11.929-10.278,11.929c-7.637,0-10.324-4.716-10.324-11.929C667.489,624.241,670.556,619.905,677.914,619.905z
		 M682.821,631.922c0-4.381-0.717-7.972-4.863-7.972c-4.19,0-5.242,3.446-5.242,7.972c0,4.191,0.848,7.826,4.994,7.826
		C681.872,639.747,682.821,636.316,682.821,631.922L682.821,631.922z"/>
	<path id="path256" inkscape:connector-curvature="0" d="M691.464,643.383V610.56l5.183-0.423v33.246H691.464z"/>
	<path id="path258" inkscape:connector-curvature="0" d="M622.021,620.226h3.913l0.423,1.694c1.564-0.847,4.439-2.029,7.024-2.029
		c4.716,0,8.162,3.446,8.162,11.695c0,8.118-3.635,12.119-9.666,12.119c-2.219,0-4.672-0.468-4.672-0.468v10.615l-5.184,0.57
		V620.226z M627.22,639.091c1.46,0.044,2.263,0.087,3.767,0.087c3.212,0,5.329-1.694,5.329-8.439c0-4.614-1.883-5.84-5.285-5.84
		c-1.315,0-2.542,0.234-3.825,0.657v13.535H627.22z"/>
	<path id="path260" inkscape:connector-curvature="0" fill="#EEB111" d="M647.705,606.005c-3.884-4.497-16.193-0.54-29.917,8.965
		v2.395c12.089-8.6,22.762-12.572,25.815-9.024c3.81,4.424-5.68,18.864-21.187,32.268c-15.52,13.374-31.202,20.645-35.013,16.221
		c-1.986-2.292-0.365-7.3,3.811-13.447h-2.424c-5.169,7.709-7.111,14.192-4.453,17.272c4.848,5.607,22.953-2.058,40.459-17.17
		C642.273,628.403,652.552,611.612,647.705,606.005z"/>
</g>
<rect x="2423.037" y="1968.952" fill="#19839B" stroke="#000000" stroke-miterlimit="10" width="250.073" height="250.074"/>
</svg>
