<svg height="480pt" viewBox="-48 0 480 480" width="480pt" xmlns="http://www.w3.org/2000/svg"><path d="m368 97.472656v-73.472656c0-13.253906-10.746094-24-24-24h-304c-13.253906 0-24 10.746094-24 24v73.472656c-9.554688 3.378906-15.9570312 12.394532-16 22.527344v16c.0429688 10.132812 6.445312 19.148438 16 22.527344v249.535156c.035156 13.207031 10.730469 23.902344 23.9375 23.9375h.0625v24c0 13.253906 10.746094 24 24 24h256c13.253906 0 24-10.746094 24-24v-24h.0625c13.207031-.035156 23.902344-10.730469 23.9375-23.9375v-249.535156c9.554688-3.378906 15.957031-12.394532 16-22.527344v-16c-.042969-10.132812-6.445312-19.148438-16-22.527344zm-336-73.472656c0-4.417969 3.582031-8 8-8h304c4.417969 0 8 3.582031 8 8v72h-320zm296 432c0 4.417969-3.582031 8-8 8h-256c-4.417969 0-8-3.582031-8-8v-24h272zm24-47.9375c-.003906 4.382812-3.554688 7.933594-7.9375 7.9375h-304.125c-4.382812-.003906-7.933594-3.554688-7.9375-7.9375v-248.0625h320zm16-272.0625c0 4.417969-3.582031 8-8 8h-336c-4.417969 0-8-3.582031-8-8v-16c0-4.417969 3.582031-8 8-8h336c4.417969 0 8 3.582031 8 8zm0 0"/><path d="m264 408h16c4.417969 0 8-3.582031 8-8s-3.582031-8-8-8h-16c-4.417969 0-8 3.582031-8 8s3.582031 8 8 8zm0 0"/><path d="m312 408h24c4.417969 0 8-3.582031 8-8v-24c0-4.417969-3.582031-8-8-8s-8 3.582031-8 8v16h-16c-4.417969 0-8 3.582031-8 8s3.582031 8 8 8zm0 0"/><path d="m224 32h-64c-4.417969 0-8 3.582031-8 8v32c0 4.417969 3.582031 8 8 8h64c4.417969 0 8-3.582031 8-8v-32c0-4.417969-3.582031-8-8-8zm-8 32h-48v-16h48zm0 0"/><path d="m120 32c-13.253906 0-24 10.746094-24 24s10.746094 24 24 24 24-10.746094 24-24-10.746094-24-24-24zm0 32c-4.417969 0-8-3.582031-8-8s3.582031-8 8-8 8 3.582031 8 8-3.582031 8-8 8zm0 0"/><path d="m64 32c-13.253906 0-24 10.746094-24 24s10.746094 24 24 24 24-10.746094 24-24-10.746094-24-24-24zm0 32c-4.417969 0-8-3.582031-8-8s3.582031-8 8-8 8 3.582031 8 8-3.582031 8-8 8zm0 0"/><path d="m264 32c-13.253906 0-24 10.746094-24 24s10.746094 24 24 24 24-10.746094 24-24-10.746094-24-24-24zm0 32c-4.417969 0-8-3.582031-8-8s3.582031-8 8-8 8 3.582031 8 8-3.582031 8-8 8zm0 0"/><path d="m320 32c-13.253906 0-24 10.746094-24 24s10.746094 24 24 24 24-10.746094 24-24-10.746094-24-24-24zm0 32c-4.417969 0-8-3.582031-8-8s3.582031-8 8-8 8 3.582031 8 8-3.582031 8-8 8zm0 0"/></svg>