<?xml version="1.0" encoding="utf-8"?>
<!-- Generator: Adobe Illustrator 16.0.3, SVG Export Plug-In . SVG Version: 6.00 Build 0)  -->
<!DOCTYPE svg PUBLIC "-//W3C//DTD SVG 1.1//EN" "http://www.w3.org/Graphics/SVG/1.1/DTD/svg11.dtd">
<svg version="1.1"
	 id="svg2" xmlns:rdf="http://www.w3.org/1999/02/22-rdf-syntax-ns#" xmlns:svg="http://www.w3.org/2000/svg" xmlns:dc="http://purl.org/dc/elements/1.1/" xmlns:cc="http://creativecommons.org/ns#"
	 xmlns="http://www.w3.org/2000/svg" xmlns:xlink="http://www.w3.org/1999/xlink" x="0px" y="0px" width="500px" height="500px"
	 viewBox="0 0 500 500" enable-background="new 0 0 500 500" xml:space="preserve">
<g>
	<g id="Layer_x0020_1">
		
			<linearGradient id="SVGID_1_" gradientUnits="userSpaceOnUse" x1="7088.6963" y1="-3434.6084" x2="7157.8872" y2="-4028.4878" gradientTransform="matrix(0.072 0 0 -0.072 -198.1316 14.5359)">
			<stop  offset="0" style="stop-color:#325D98"/>
			<stop  offset="1" style="stop-color:#317EC0"/>
		</linearGradient>
		<path fill="url(#SVGID_1_)" d="M334.158,262.418l-8.278,26.709c0,0-12.959,15.839-26.35,7.92
			c-13.318-7.92-3.6-31.748,8.279-34.629H334.158z"/>
		<path fill="#3457A1" d="M102.489,232.613c-1.872,10.224-8.279,11.663-8.279,11.663h-6.911l5.472-20.878h5.471
			c0,0,6.191-0.936,4.248,9.287V232.613z M98.458,213.608H82.044l-10.943,41.324h22.533c0,0,20.445-1.225,23.254-21.598
			c2.879-20.446-18.502-19.726-18.502-19.726H98.458z"/>
		<path fill="#3457A1" d="M125.814,214.832l-6.911,26.133c0,0-4.248,14.039,15.189,14.039c19.438,0,22.534-13.535,22.534-13.535
			l7.631-26.564h-13.534l-6.912,24.908c0,0-1.151,5.688-7.342,5.473c-6.191-0.217-2.16-10.295-2.16-10.295l5.903-20.086h-14.471
			L125.814,214.832z"/>
		<path fill="#3457A1" d="M189.815,227.143c-2.16,5.327-10.584,4.248-10.584,4.248l1.873-8.567c0,0,10.87-1.08,8.711,4.247V227.143z
			 M197.662,234.27c3.239-3.023,5.183-7.271,4.535-12.311s-6.335-6.982-11.087-7.127c-4.751-0.216-19.869,0-19.869,0l-11.375,40.1
			h13.031l4.104-16.559c0,0,2.735,1.296,3.887,4.248c1.152,2.951,1.008,12.311,16.414,12.311h2.448c0,0-5.544-13.967-8.136-16.559
			S194.351,237.293,197.662,234.27z"/>
		<path fill="#3457A1" d="M211.772,214.832l-8.279,32.684c0,0-3.455,8.063,6.407,8.063h24.333l2.952-10.583l-20.302,0.145l1.8-6.264
			l16.414,0.145l2.159-9.503l-16.414,0.36l1.512-5.328l17.711,0.359l3.455-10.006h-31.676L211.772,214.832z"/>
		<polygon fill="#3457A1" points="246.185,215.768 255.688,233.262 237.474,254.932 253.527,254.932 260.151,244.781 
			264.759,254.932 280.452,254.932 269.726,234.342 285.78,215.768 269.438,215.768 264.183,224.191 260.007,214.832 		"/>
		<path fill="#3262AA" d="M126.462,279.265c-0.936,0.432-2.52,0.792-4.68,0.792c-4.679,0-7.847-2.808-7.847-7.487
			c0-4.032,1.8-7.127,4.464-8.927c1.871-1.225,3.959-1.872,6.479-1.872c1.944,0,3.385,0.433,3.889,0.72l-1.08,3.096
			c-0.504-0.287-1.656-0.576-3.24-0.576c-1.512,0-2.951,0.504-4.031,1.368c-1.439,1.224-2.447,3.239-2.447,5.759
			c0,2.809,1.584,4.752,4.679,4.752c1.296,0,2.521-0.216,3.384-0.576l0.288,3.023L126.462,279.265z"/>
		<path fill="#3262AA" d="M133.229,277.105c2.016,0,3.24-3.024,3.24-5.184c0-1.225-0.504-2.448-2.017-2.448
			c-2.159,0-3.312,3.167-3.312,5.111c0,1.512,0.792,2.521,2.016,2.521l0,0H133.229z M132.726,279.984
			c-3.312,0-5.471-2.16-5.471-5.327c0-4.464,3.095-8.136,7.703-8.136c3.455,0,5.471,2.377,5.471,5.328
			c0,4.68-3.24,8.135-7.631,8.135l0,0H132.726z"/>
		<path fill="#3262AA" d="M140.284,279.696l1.656-8.639c0.288-1.655,0.504-3.024,0.648-4.176h3.311l-0.215,2.159h0.071
			c1.224-1.655,2.808-2.447,4.464-2.447c2.088,0,3.312,1.296,3.312,3.527c0,0.576-0.072,1.512-0.216,2.16l-1.439,7.487h-3.816
			l1.368-7.128c0.071-0.432,0.144-0.936,0.144-1.439c0-0.936-0.287-1.584-1.295-1.584c-1.225,0-2.664,1.584-3.24,4.393l-1.08,5.687
			h-3.815H140.284z"/>
		<path fill="#3262AA" d="M161.019,263.426l-0.648,3.456h2.736l-0.576,2.88h-2.736l-0.863,4.319
			c-0.072,0.504-0.217,1.151-0.217,1.655c0,0.648,0.289,1.08,1.08,1.08c0.289,0,0.721,0,1.008-0.072l-0.432,2.952
			c-0.504,0.216-1.439,0.288-2.231,0.288c-2.304,0-3.384-1.152-3.384-2.808c0-0.647,0.072-1.368,0.288-2.376l0.937-5.111h-1.656
			l0.504-2.879h1.656l0.504-2.448l3.887-1.08L161.019,263.426z"/>
		<path fill="#3262AA" d="M166.346,265.154c-1.08,0-1.944-0.792-1.944-1.943c0-1.368,1.08-2.305,2.305-2.305
			c1.151,0,2.016,0.793,2.016,1.944C168.722,264.29,167.642,265.154,166.346,265.154L166.346,265.154z M161.595,279.696
			l2.447-12.814h3.744l-2.448,12.814h-3.815H161.595z"/>
		<path fill="#3262AA" d="M176.856,269.689c-0.288-0.144-0.863-0.216-1.367-0.216c-2.305,0-3.889,2.52-3.889,4.968
			c0,1.295,0.576,2.231,1.729,2.231c1.224,0,2.447-1.368,2.879-3.527L176.856,269.689z M168.001,281.496
			c0.721,0.432,2.232,0.721,3.385,0.721c1.871,0,3.311-0.864,3.814-3.385l0.217-1.079h-0.072c-1.008,1.296-2.16,1.943-3.672,1.943
			c-2.52,0-4.104-2.087-4.104-4.607c0-4.247,3.023-8.423,8.639-8.423c1.801,0,3.385,0.359,4.752,0.863l-1.943,10.584
			c-0.432,2.375-1.152,4.463-2.736,5.687c-1.367,1.08-3.239,1.44-4.967,1.44c-1.729,0-3.313-0.288-4.176-0.793l0.863-2.879V281.496z
			"/>
		<path fill="#3262AA" d="M186.935,277.105c2.017,0,3.24-3.024,3.24-5.184c0-1.225-0.504-2.448-2.016-2.448
			c-2.16,0-3.312,3.167-3.312,5.111c0,1.512,0.792,2.521,2.016,2.521l0,0H186.935z M186.431,279.984
			c-3.311,0-5.471-2.16-5.471-5.327c0-4.464,3.096-8.136,7.703-8.136c3.455,0,5.471,2.377,5.471,5.328
			c0,4.68-3.238,8.135-7.631,8.135l0,0H186.431z"/>
		<path fill="#3262AA" d="M201.478,276.313c0.72,0.36,2.16,0.864,3.384,0.864c1.079,0,1.583-0.504,1.583-1.151
			c0-0.648-0.432-1.08-1.583-1.656c-1.44-0.72-2.735-1.8-2.735-3.384c0-2.663,2.303-4.464,5.615-4.464
			c1.512,0,2.664,0.289,3.311,0.648l-0.863,2.664c-0.504-0.217-1.439-0.576-2.592-0.576c-1.008,0-1.656,0.432-1.656,1.152
			c0,0.504,0.504,1.008,1.584,1.439c1.44,0.72,2.881,1.728,2.881,3.527c0,2.951-2.521,4.535-5.904,4.535
			c-1.584,0-3.168-0.432-3.887-1.008l0.936-2.664L201.478,276.313z"/>
		<path fill="#3262AA" d="M215.372,265.154c-1.08,0-1.943-0.792-1.943-1.943c0-1.368,1.08-2.305,2.303-2.305
			c1.152,0,2.016,0.793,2.016,1.944C217.747,264.29,216.668,265.154,215.372,265.154L215.372,265.154z M210.62,279.696l2.448-12.814
			h3.743l-2.447,12.814h-3.816H210.62z"/>
		<path fill="#3262AA" d="M225.019,270.41c0-0.648-0.504-1.08-1.367-1.08c-1.729,0-2.736,1.439-3.023,2.663
			C223.579,271.993,225.019,271.633,225.019,270.41L225.019,270.41z M226.962,278.977c-1.512,0.792-3.383,1.008-4.75,1.008
			c-3.672,0-5.544-2.088-5.544-5.471c0-3.889,2.808-7.992,7.487-7.992c2.592,0,4.463,1.44,4.463,3.889
			c0,3.239-3.168,4.463-8.351,4.318c0,0.36,0.144,0.937,0.36,1.297c0.504,0.647,1.367,1.008,2.447,1.008
			c1.367,0,2.592-0.289,3.6-0.793L226.962,278.977z"/>
		<path fill="#3262AA" d="M228.114,279.696l1.584-8.639c0.288-1.655,0.504-3.024,0.648-4.176h3.239l-0.216,2.088h0.072
			c1.151-1.655,2.735-2.376,4.391-2.376c2.016,0,2.952,1.296,3.023,2.447c1.152-1.655,2.736-2.447,4.464-2.447
			c1.944,0,3.096,1.296,3.096,3.456c0,0.504-0.071,1.583-0.216,2.231l-1.367,7.487h-3.672l1.295-6.983
			c0.072-0.504,0.217-1.08,0.217-1.584c0-0.863-0.36-1.512-1.296-1.512c-1.296,0-2.521,1.656-3.024,4.248l-1.079,5.831h-3.672
			l1.368-7.056c0.072-0.504,0.144-1.008,0.144-1.439c0-0.863-0.288-1.584-1.224-1.584c-1.296,0-2.592,1.8-3.096,4.32l-1.08,5.759
			h-3.672L228.114,279.696z"/>
		<path fill="#3262AA" d="M252.952,276.529c0.432,0.359,0.936,0.576,1.727,0.576c2.017,0,3.6-2.881,3.6-5.4
			c0-1.008-0.432-2.088-1.655-2.088c-1.439,0-2.735,1.584-3.239,4.104l-0.504,2.809H252.952z M247.552,284.88l2.52-13.103
			c0.289-1.512,0.576-3.744,0.721-5.039h3.383l-0.215,1.943h0.072c1.079-1.367,2.591-2.16,4.104-2.16
			c2.807,0,4.175,2.232,4.175,4.896c0,4.463-2.952,8.566-7.487,8.566c-1.008,0-1.943-0.288-2.375-0.504h-0.072l-1.008,5.472h-3.816
			V284.88z"/>
		<path fill="#3262AA" d="M262.095,279.696l1.439-7.631c0.36-1.944,0.504-4.104,0.648-5.184h3.239
			c-0.071,0.864-0.144,1.728-0.216,2.664h0.072c0.863-1.728,2.303-2.952,4.104-2.952c0.287,0,0.504,0,0.72,0l-0.72,3.672
			c-0.145,0-0.36,0-0.576,0c-2.376,0-3.527,2.16-4.031,4.68l-0.864,4.751H262.095z"/>
		<path fill="#3262AA" d="M279.301,270.41c0-0.648-0.504-1.08-1.368-1.08c-1.728,0-2.735,1.439-3.023,2.663
			C277.86,271.993,279.301,271.633,279.301,270.41L279.301,270.41z M281.244,278.977c-1.512,0.792-3.384,1.008-4.751,1.008
			c-3.672,0-5.543-2.088-5.543-5.471c0-3.889,2.807-7.992,7.486-7.992c2.592,0,4.464,1.44,4.464,3.889
			c0,3.239-3.168,4.463-8.351,4.318c0,0.36,0.144,0.937,0.359,1.297c0.504,0.647,1.367,1.008,2.447,1.008
			c1.368,0,2.592-0.289,3.6-0.793L281.244,278.977z"/>
		
			<linearGradient id="SVGID_2_" gradientUnits="userSpaceOnUse" x1="7398.8164" y1="-3343.2656" x2="6875.8086" y2="-2555.5867" gradientTransform="matrix(0.072 0 0 -0.072 -198.1316 14.5359)">
			<stop  offset="0" style="stop-color:#EA3561"/>
			<stop  offset="0.2902" style="stop-color:#EA3561"/>
			<stop  offset="1" style="stop-color:#ED76AD"/>
		</linearGradient>
		<path fill="url(#SVGID_2_)" d="M335.599,254.932l6.839-27.861c0,0,2.52-24.549-23.109-21.309
			c-25.63,3.239-38.588,45.93-8.64,49.098h24.91V254.932z"/>
		
			<linearGradient id="SVGID_3_" gradientUnits="userSpaceOnUse" x1="7549.1387" y1="-2826.2085" x2="8718.5488" y2="-2826.2085" gradientTransform="matrix(0.072 0 0 -0.072 -198.1316 14.5359)">
			<stop  offset="0" style="stop-color:#325D98"/>
			<stop  offset="1" style="stop-color:#317EC0"/>
		</linearGradient>
		<path fill="url(#SVGID_3_)" d="M346.037,252.412L346.037,252.412L346.037,252.412l4.679-16.99l0,0l0,0l7.56-27.429
			c0,0,4.104-8.423,12.814-15.838l0,0l0,0c1.224-1.008,2.521-2.016,3.888-3.024l0,0l0,0c0.504-0.36,1.008-0.648,1.512-1.008l0,0l0,0
			c0.288-0.144,0.504-0.36,0.792-0.504l0,0l0,0c0.36-0.216,0.647-0.432,1.008-0.576l0,0l0,0c1.296-0.72,2.663-1.439,4.104-2.087l0,0
			l0,0c0.433-0.216,0.937-0.432,1.368-0.576l0,0l0,0c0.144-0.072,0.359-0.144,0.504-0.216l0,0l0,0
			c0.504-0.216,1.08-0.432,1.584-0.576l0,0l0,0c0.072,0,0.216-0.072,0.287-0.072l0,0l0,0c0.289-0.072,0.576-0.216,0.864-0.288l0,0
			l0,0c0.288-0.072,0.647-0.216,1.008-0.288l0,0l0,0c0.864-0.288,1.8-0.504,2.664-0.72l0,0l0,0c0.504-0.072,0.936-0.216,1.439-0.288
			h0.072l0,0c0.144,0,0.36-0.072,0.504-0.072l0,0l0,0c0.144,0,0.288-0.072,0.504-0.072c0.216-0.072,0.504-0.072,0.72-0.145h0.072
			l0,0c0.216,0,0.504-0.072,0.72-0.072h0.072l0,0c0.288,0,0.575-0.072,0.864-0.072l0,0l0,0c0.504-0.072,0.936-0.072,1.439-0.072
			h3.24c0.791,0.072,1.583,0.072,2.303,0.216l0,0l0,0c0.648,0.072,1.296,0.145,1.943,0.288l0,0l0,0c0.145,0,0.361,0.072,0.504,0.072
			l0,0l0,0c0.721,0.144,1.369,0.288,2.088,0.504l0,0l0,0c1.297,0.36,2.521,0.792,3.744,1.296l0,0l0,0
			c1.152,0.504,2.232,1.008,3.24,1.583l0,0l0,0c0.575,0.36,1.223,0.72,1.799,1.08l0,0l0,0c0.072,0.072,0.217,0.144,0.289,0.216l0,0
			l0,0c0.071,0.072,0.215,0.144,0.287,0.216l0,0l0,0c0.359,0.288,0.721,0.504,1.08,0.792l0,0l0,0
			c0.145,0.144,0.359,0.288,0.504,0.36l0,0l0,0c0.432,0.36,0.863,0.72,1.296,1.08l0,0l0,0c1.008,0.936,2.016,1.944,2.88,2.952l0,0
			l0,0c0.359,0.432,0.72,0.936,1.08,1.368l0,0l0,0c0.071,0.144,0.215,0.288,0.287,0.36l0,0l0,0c0.289,0.36,0.576,0.792,0.793,1.152
			l0,0l0,0c0.071,0.072,0.143,0.216,0.215,0.288l0,0l0,0c0.648,1.08,1.297,2.232,1.801,3.384l0,0l0,0l0.071,0.216l0,0l0,0
			c0.36,0.72,0.647,1.512,0.864,2.304l0,0l0,0c0,0.072,0.072,0.216,0.072,0.288l0,0l0,0c0.215,0.576,0.359,1.08,0.504,1.656v0.072
			l0,0c0.072,0.36,0.215,0.792,0.287,1.224l0,0l0,0c0,0.144,0.072,0.288,0.072,0.432l0,0l0,0c0,0.144,0.072,0.288,0.072,0.504l0,0
			l0,0c0.072,0.36,0.145,0.792,0.216,1.152l0,0l0,0c0,0.216,0.071,0.504,0.071,0.72v0.072l0,0c0.072,0.792,0.145,1.512,0.217,2.304
			v3.023c0,0.432-0.072,0.864-0.072,1.296l0,0v0.144c-0.072,0.504-0.145,1.08-0.216,1.655l0,0v0.145
			c0,0.216-0.071,0.359-0.071,0.576l0,0v0.072c-0.072,0.359-0.145,0.719-0.217,1.08l0,0l0,0c0,0.144-0.072,0.287-0.072,0.504l0,0
			l0,0c0,0.144-0.072,0.287-0.072,0.432l0,0l0,0c0,0.144-0.071,0.287-0.071,0.359l0,0v0.072c-0.144,0.504-0.216,1.008-0.36,1.584
			l0,0l0,0c-0.072,0.216-0.144,0.432-0.216,0.648l0,0l0,0c-0.144,0.432-0.288,0.863-0.36,1.295l0,0l0,0l-0.071,0.288l0,0l0,0
			l-0.072,0.288l0,0l0,0c-0.071,0.288-0.216,0.504-0.288,0.792l0,0v0.071l-0.072,0.289l0,0l0,0
			c-0.215,0.504-0.359,1.008-0.575,1.512l0,0l0,0c-0.072,0.216-0.216,0.432-0.288,0.647l0,0l0,0
			c-0.145,0.288-0.216,0.504-0.359,0.792c-0.648,1.439-1.369,2.808-2.017,4.104l0,0l0,0c-0.288,0.576-0.575,1.08-0.864,1.584l0,0
			l0,0c-0.359,0.648-0.791,1.367-1.223,2.016l0,0l0,0c-0.072,0.072-0.145,0.216-0.217,0.288l0,0l0,0
			c-0.359,0.647-0.791,1.224-1.224,1.8l0,0l0,0c-0.072,0.072-0.144,0.216-0.216,0.287l0,0l0,0c-0.36,0.505-0.721,1.009-1.08,1.513
			l0,0l0,0c-0.359,0.504-0.72,0.936-1.08,1.368l0,0l0,0c-0.144,0.215-0.359,0.432-0.504,0.575l0,0l0,0
			c-0.432,0.576-0.936,1.08-1.367,1.584l0,0l0,0l-0.072,0.072l0,0l0,0c-0.864,0.936-1.729,1.8-2.592,2.591l0,0l0,0l-0.072,0.072l0,0
			l0,0c-0.287,0.289-0.576,0.504-0.863,0.793l0,0l0,0c-0.721,0.575-1.368,1.151-2.088,1.727l0,0l0,0
			c-0.36,0.289-0.721,0.576-1.08,0.793l0,0l0,0c-0.576,0.432-1.225,0.791-1.8,1.224l0,0l0,0c-0.36,0.216-0.647,0.432-1.008,0.575
			l0,0l0,0c-1.224,0.721-2.376,1.297-3.528,1.801l0,0l0,0c-1.727,0.791-3.311,1.295-4.679,1.728l0,0l0,0
			c-3.312,0.936-5.472,0.936-5.472,0.936h-47.227l0.721-2.52L346.037,252.412z"/>
		<path fill="none" d="M342.509,262.418l-8.351,28.869l0,0l0,0v0.072l0,0v0.072l0,0v0.144l0,0l-0.071,0.144l0,0l-0.072,0.217l0,0
			l-0.072,0.215l-0.072,0.217l0,0l-0.072,0.216v0.071l-0.072,0.217v0.145v0.215v0.145v0.216v0.144v0.289v0.144v0.216v0.216v0.216
			v0.217v0.287v0.217v0.287v0.217v0.287v0.217v0.287v0.217v0.287v0.289v0.287v0.288v0.288v0.288c0,0.071,0,0.216,0,0.288v0.287
			v0.289v0.287c0,0.072,0,0.217,0,0.289v0.287c0,0.072,0,0.217,0.072,0.288c0,0.072,0,0.216,0.072,0.288
			c0,0.145,0,0.216,0.072,0.359l0.072,0.289c0,0.144,0.072,0.215,0.072,0.359c0,0.072,0.071,0.216,0.071,0.288
			c0,0.071,0.072,0.216,0.072,0.288s0.071,0.216,0.071,0.287c0,0.145,0.072,0.217,0.072,0.36l0.072,0.288
			c0,0.145,0.072,0.216,0.072,0.359l0.072,0.289c0,0.144,0.071,0.215,0.144,0.359c0,0.072,0.071,0.217,0.071,0.288
			c0.072,0.144,0.072,0.216,0.145,0.36c0.072,0.072,0.072,0.216,0.145,0.287c0.071,0.145,0.071,0.217,0.144,0.36
			c0.071,0.072,0.071,0.216,0.144,0.288c0.072,0.145,0.072,0.216,0.145,0.359c0.072,0.072,0.072,0.217,0.144,0.289
			c0.072,0.144,0.144,0.215,0.144,0.359c0.072,0.072,0.072,0.216,0.145,0.288c0.072,0.144,0.145,0.216,0.145,0.36
			c0.071,0.071,0.144,0.215,0.144,0.287c0.071,0.145,0.144,0.217,0.216,0.36c0.072,0.071,0.145,0.216,0.216,0.288
			c0.072,0.072,0.144,0.216,0.216,0.288c0.072,0.071,0.145,0.216,0.217,0.288s0.144,0.216,0.215,0.287
			c0.072,0.072,0.145,0.217,0.217,0.289c0.072,0.071,0.145,0.215,0.216,0.287s0.144,0.217,0.216,0.288
			c0.072,0.072,0.145,0.216,0.288,0.288c0.072,0.072,0.144,0.216,0.288,0.288c0.072,0.071,0.216,0.216,0.288,0.288
			c0.071,0.072,0.216,0.216,0.288,0.287c0.072,0.072,0.216,0.217,0.287,0.289c0.072,0.071,0.217,0.215,0.289,0.287
			c0.071,0.072,0.215,0.217,0.287,0.289c0.072,0.071,0.217,0.144,0.288,0.287c0.144,0.072,0.216,0.145,0.36,0.288
			c0.144,0.072,0.216,0.144,0.359,0.288c0.145,0.072,0.217,0.145,0.36,0.216c0.144,0.072,0.288,0.144,0.36,0.288
			c0.144,0.072,0.216,0.145,0.359,0.216c0.145,0.072,0.288,0.144,0.36,0.216c0.144,0.072,0.288,0.145,0.36,0.217
			c0.144,0.071,0.287,0.144,0.432,0.215c0.144,0.072,0.287,0.145,0.432,0.217s0.288,0.144,0.432,0.216
			c0.145,0.071,0.288,0.144,0.432,0.216c0.145,0.072,0.289,0.145,0.504,0.216c0.145,0.072,0.289,0.144,0.433,0.216
			s0.288,0.145,0.504,0.217c0.144,0.072,0.288,0.144,0.504,0.215c0.144,0.072,0.36,0.145,0.504,0.217s0.36,0.145,0.504,0.216
			c0.144,0.072,0.36,0.144,0.504,0.144c0.144,0.072,0.36,0.145,0.504,0.145c0.216,0.072,0.36,0.072,0.576,0.145
			c0.216,0.071,0.36,0.071,0.575,0.144c0.217,0.071,0.433,0.071,0.576,0.144c0.217,0.072,0.36,0.072,0.576,0.145
			c0.217,0.072,0.432,0.072,0.648,0.144c0.216,0.072,0.359,0.072,0.576,0.144c0.215,0.072,0.432,0.072,0.719,0.145
			c0.217,0,0.361,0.072,0.576,0.072c0.217,0,0.432,0.072,0.721,0.072c0.216,0,0.432,0.071,0.647,0.071
			c0.288,0,0.504,0.072,0.792,0.072c0.216,0,0.359,0.071,0.576,0.071c0.287,0,0.576,0.072,0.863,0.072c0.217,0,0.36,0,0.576,0.072
			c0.217,0,0.36,0,0.576,0 M358.995,318.572c0.504,0,1.008,0,1.584,0h0.072l0,0c0.504,0,1.08,0,1.584,0
			c35.707-0.721,42.188-53.346,9.719-56.298h-29.156"/>
		
			<linearGradient id="SVGID_4_" gradientUnits="userSpaceOnUse" x1="6742.1318" y1="-3031.4053" x2="7500.3145" y2="-3031.4053" gradientTransform="matrix(0.072 0 0 -0.072 -198.1316 14.5359)">
			<stop  offset="0" style="stop-color:#EA3468"/>
			<stop  offset="1" style="stop-color:#ED76AD"/>
		</linearGradient>
		<path fill="url(#SVGID_4_)" d="M333.87,253.779l5.832-23.686c0,0,2.159-20.877-19.654-18.069
			c-21.742,2.735-32.828,39.091-7.344,41.755H333.87z"/>
		
			<linearGradient id="SVGID_5_" gradientUnits="userSpaceOnUse" x1="8521.4082" y1="-2394.1982" x2="7763.5894" y2="-3361.063" gradientTransform="matrix(0.072 0 0 -0.072 -198.1316 14.5359)">
			<stop  offset="0" style="stop-color:#325D98"/>
			<stop  offset="1" style="stop-color:#317EC0"/>
		</linearGradient>
		<path fill="url(#SVGID_5_)" d="M347.549,253.779l11.015-39.955c0,0,9.215-19.006,29.732-22.39
			c20.518-3.383,38.3,15.55,27.572,38.948c-10.727,23.396-28.221,23.396-28.221,23.396h-40.171H347.549z"/>
		
			<linearGradient id="SVGID_6_" gradientUnits="userSpaceOnUse" x1="6799.6338" y1="-3672.6748" x2="7366.1191" y2="-3672.6748" gradientTransform="matrix(0.072 0 0 -0.072 -198.1316 14.5359)">
			<stop  offset="0" style="stop-color:#325D98"/>
			<stop  offset="1" style="stop-color:#317EC0"/>
		</linearGradient>
		<path fill="url(#SVGID_6_)" d="M332.143,263.282l-7.056,22.678c0,0-11.014,13.462-22.389,6.767
			c-11.375-6.767-3.096-26.996,7.055-29.444H332.143z"/>
		
			<linearGradient id="SVGID_7_" gradientUnits="userSpaceOnUse" x1="7338.8467" y1="-3787.7754" x2="8258.8389" y2="-3787.7754" gradientTransform="matrix(0.072 0 0 -0.072 -198.1316 14.5359)">
			<stop  offset="0" style="stop-color:#EA3468"/>
			<stop  offset="1" style="stop-color:#ED76AD"/>
		</linearGradient>
		<path fill="url(#SVGID_7_)" d="M344.093,263.282l-7.127,24.55c0,0-6.768,23.9,23.613,23.324
			c30.381-0.647,35.852-45.354,8.279-47.802h-24.766V263.282z"/>
	</g>
</g>
</svg>
