<?xml version="1.0" encoding="utf-8"?>
<!-- Generator: Adobe Illustrator 16.0.3, SVG Export Plug-In . SVG Version: 6.00 Build 0)  -->
<!DOCTYPE svg PUBLIC "-//W3C//DTD SVG 1.1//EN" "http://www.w3.org/Graphics/SVG/1.1/DTD/svg11.dtd">
<svg version="1.1"
	 id="Capa_1" image-rendering="optimizeQuality" shape-rendering="geometricPrecision" text-rendering="geometricPrecision"
	 xmlns="http://www.w3.org/2000/svg" xmlns:xlink="http://www.w3.org/1999/xlink" x="0px" y="0px" width="500px" height="500px"
	 viewBox="-108.268 -193.642 500 500" enable-background="new -108.268 -193.642 500 500" xml:space="preserve">
<g>
	<path fill="#0183A5" d="M179.29,14.089h-18.035v82.452h18.035v-5.743c3.899,4.585,9.392,7.394,16.116,7.394
		c14.043,0,25.428-12.244,25.428-27.348s-11.385-27.348-25.428-27.348c-6.725,0-12.217,2.809-16.116,7.394V14.089L179.29,14.089z"/>
	<circle fill="#FFFFFF" cx="190.428" cy="70.903" r="11.729"/>
	<path fill="#0183A5" d="M283.465,74.311h-38.209c0,0-0.596,6.848,4.366,9.826c4.963,2.977,13.101,1.786,15.582-3.077h17.367
		c0,0-4.268,17.566-25.506,17.566s-29.972-13.796-29.972-27.987c0-14.192,9.131-26.598,28.781-26.598S283.365,57.142,283.465,74.311
		L283.465,74.311z"/>
	<path fill="#FFFFFF" d="M266.594,63.792h-20.941c0,0,0.992-8.139,10.321-8.139S266.594,63.792,266.594,63.792z"/>
	<path fill="#0183A5" d="M0,45.998h17.992v6.698c1.887-2.871,6.766-8.378,16.432-8.378c13.074,0,17.272,9.956,17.272,9.956
		s4.198-9.716,17.032-9.716S86.12,52.235,86.12,62.43v35.023H68.249V70.466c0,0,1.318-11.635-7.917-11.635
		s-8.275,12.835-8.275,12.835v25.668H34.184V71.545c0,0,1.199-13.193-8.517-13.193c-5.026,0-6.97,4.463-7.676,8.77v30.213H0V45.998z
		"/>
	<path fill="#0183A5" d="M135.256,45.11h18.035v51.866h-18.035v-5.743c-3.899,4.585-9.392,7.394-16.116,7.394
		c-14.044,0-25.428-12.243-25.428-27.347c0-15.104,11.384-27.349,25.428-27.349c6.725,0,12.217,2.809,16.116,7.394V45.11z"/>
	<path fill="#FFFFFF" d="M124.116,59.61c6.478,0,11.729,5.25,11.729,11.729c0,6.477-5.251,11.729-11.729,11.729
		s-11.729-5.252-11.729-11.729C112.387,64.86,117.638,59.61,124.116,59.61L124.116,59.61z"/>
</g>
</svg>
