<?xml version="1.0" encoding="utf-8"?>
<!-- Generator: Adobe Illustrator 16.0.3, SVG Export Plug-In . SVG Version: 6.00 Build 0)  -->
<!DOCTYPE svg PUBLIC "-//W3C//DTD SVG 1.1//EN" "http://www.w3.org/Graphics/SVG/1.1/DTD/svg11.dtd">
<svg version="1.1" id="Capa_1" xmlns="http://www.w3.org/2000/svg" xmlns:xlink="http://www.w3.org/1999/xlink" x="0px" y="0px"
	 width="500px" height="500px" viewBox="-148 -238 500 500" enable-background="new -148 -238 500 500" xml:space="preserve">
<g>
	<path fill="#2D2E2C" d="M205.354,12.902v25.405h9.105v-50.73h-9.104v25.325 M23.494,16.852h13.234v9.497
		c-3.171,2.319-7.614,3.842-12.497,3.842c-10.581,0-17.612-7.682-17.612-18.115v-0.152c0-9.708,7.249-17.895,16.792-17.895
		c6.588,0,10.51,2.099,14.502,5.434l5.772-6.748c-5.317-4.41-10.88-6.875-19.895-6.875C8.172-14.161-2.927-2.13-2.927,12.076v0.146
		c0,14.782,10.659,26.088,26.857,26.088c9.178,0,16.499-3.624,21.612-7.901V9.095H23.495v7.76"/>
	<g transform="translate(0 .719)">
		<defs>
			<filter id="Adobe_OpacityMaskFilter" filterUnits="userSpaceOnUse" x="-134.606" y="-13.14" width="463.391" height="50.73">
				<feColorMatrix  type="matrix" values="1 0 0 0 0  0 1 0 0 0  0 0 1 0 0  0 0 0 1 0"/>
			</filter>
		</defs>
		<mask maskUnits="userSpaceOnUse" x="-134.606" y="-13.14" width="463.391" height="50.73" id="b">
			<g filter="url(#Adobe_OpacityMaskFilter)">
				<path id="a" fill="#FFFFFF" d="M-134.504,37.591v-50.73h463.289v50.73H-134.504z"/>
			</g>
		</mask>
		<path mask="url(#b)" fill="#2D2E2C" d="M299.477,29.617V15.99h29.299V8.016h-29.299V-5.169h29.299v-7.971h-38.4v50.73h38.41
			v-7.974H299.477 M-134.606,37.591h9.1V16.936h29.442v-8.11h-29.442V-5.026h29.46v-8.114h-38.56V37.591"/>
	</g>
	<path fill="#2D2E2C" d="M-74.381,12.723V-4.309h13.251c6.732,0,10.728,2.969,10.728,8.409v0.144c0,5.144-4.143,8.478-10.654,8.478
		L-74.381,12.723L-74.381,12.723z M-53.508,19.104c7.249-2.029,12.357-7.029,12.357-15.366V3.592c0-4.426-1.555-8.188-4.292-10.946
		c-3.328-3.181-8.44-5.066-14.944-5.066h-23.089v50.73h9.098V20.625h11.396l12.73,17.685h10.729L-53.508,19.104z M-26.158,12.059
		v26.249h9.1v-50.73h-9.1V12.059 M61.839,12.902v25.405h9.104v-50.73h-9.104V12.902 M126.676,13.088
		c0,9.926-7.109,17.093-17.973,17.093H98.487V-4.309h10.216c10.863,0,17.973,7.321,17.973,17.244v0.149V13.088z M108.703-12.421
		H89.378v50.73h19.325c16.27,0,27.529-11.092,27.529-25.371v-0.143C136.232-1.479,124.973-12.421,108.703-12.421z M242.031,12.723
		V-4.309h13.246c6.729,0,10.729,2.969,10.729,8.409v0.144c0,5.144-4.148,8.478-10.658,8.478L242.031,12.723L242.031,12.723z
		 M262.896,19.104c7.25-2.029,12.355-7.029,12.355-15.366V3.592c0-4.426-1.561-8.188-4.291-10.946
		c-3.332-3.181-8.441-5.066-14.945-5.066h-23.084v50.73h9.1V20.625h11.393l12.725,17.685h10.734L262.896,19.104L262.896,19.104z
		 M139.893,38.308h54.838l-27.412-52.701L139.893,38.308"/>
	<path fill="#DC3E54" d="M153.701,30.167L167.258,3.47l13.666,26.697H153.701"/>
	<path fill="#2D2E2C" d="M334.857,34.344c0.514,0,0.818-0.239,0.818-0.632v-0.018c0-0.414-0.305-0.635-0.818-0.635h-1.029v1.287
		h1.029V34.344z M333.035,32.361h1.85c0.553,0,0.979,0.16,1.262,0.442c0.232,0.218,0.355,0.527,0.34,0.849v0.019
		c0,0.655-0.395,1.063-0.963,1.224l1.117,1.536h-0.939l-1.01-1.41h-0.863v1.41h-0.793V32.361L333.035,32.361z M338.191,34.509
		v-0.023c0-1.917-1.525-3.477-3.545-3.477c-2.027,0-3.561,1.577-3.561,3.5v0.021c0,1.923,1.52,3.477,3.539,3.477
		C336.654,38.007,338.191,36.431,338.191,34.509L338.191,34.509z M330.666,34.53v-0.021c0-2.116,1.758-3.887,3.98-3.887
		c2.227,0,3.959,1.747,3.959,3.863v0.023c0,2.115-1.756,3.885-3.982,3.885S330.666,36.646,330.666,34.53z"/>
</g>
</svg>
